# xmcd
#
# Track frame offsets:
# 150
# 15787
# 29001
# 47861
# 60753
# 93148
# 109136
# 126559
# 151498
# 168333
#
# Disc length: 2774 seconds
#
# Revision: 0
# Processed by: cddbd v1.5.1PL0 Copyright (c) Steve Scherf et al.
# Submitted via: Audion 3.0.2 (http://www.panic.com/audion/)
#
DISCID=750ad40a
DTITLE=Keren Ann - Nolita
DYEAR=1900
DGENRE=
TTITLE0=Que n'ai-je?
TTITLE1=L'onde amère
TTITLE2=Chelsea Burns
TTITLE3=Midi dans le salon de la Duchesse
TTITLE4=Nolita
TTITLE5=Roses and Hips
TTITLE6=One Day Without
TTITLE7=La forme et la fond
TTITLE8=For You And I
TTITLE9=Song of Alice
EXTD=
EXTT0=
EXTT1=
EXTT2=
EXTT3=
EXTT4=
EXTT5=
EXTT6=
EXTT7=
EXTT8=
EXTT9=
PLAYORDER=
